# xmcd
#
# Track frame offsets:
#	150
#	22533
#	42768
#	70080
#	82820
#	106178
#	123498
#	138688
#	160223
#	178450
#	195460
#
# Disc length: 2911 seconds
#
# Revision: 1
# Processed by: cddbd v1.5.2PL0 Copyright (c) Steve Scherf et al.
# Submitted via: EasyCDDAExtractor 7.0.3.1
#
DISCID=880b5d0b
DTITLE=Lacy Younger
DYEAR=1900
DGENRE=Country
TTITLE0=This Ain't the First Time
TTITLE1=But I Miss You
TTITLE2=Livin' On Memories
TTITLE3=Dead Wrong
TTITLE4=Didn't I
TTITLE5=This Time
TTITLE6=Let Me In
TTITLE7=Really Doesn't Matter
TTITLE8=Somebody Else
TTITLE9=Broken Heart, Broken Bones
TTITLE10=Not Forgiving You (A Few Fine Lines)
EXTD=
EXTT0=
EXTT1=
EXTT2=
EXTT3=
EXTT4=
EXTT5=
EXTT6=
EXTT7=
EXTT8=
EXTT9=
EXTT10=
PLAYORDER=
